<svg xmlns="http://www.w3.org/2000/svg" viewBox="0 0 50.9 50.92"><defs><style>.cls-1{fill:#6bcce2;}</style></defs><title>Instagram</title><g id="Layer_2" data-name="Layer 2"><g id="Layer_1-2" data-name="Layer 1"><path class="cls-1" d="M0,27V24L.12,22.9A25.09,25.09,0,0,1,6.52,8.49,25,25,0,0,1,21.08.4C22,.23,23,.13,24,0h3c.86.11,1.71.18,2.56.33a24.69,24.69,0,0,1,13.76,7A24.89,24.89,0,0,1,50.78,28a24.22,24.22,0,0,1-6.22,14.23,24.9,24.9,0,0,1-18,8.64,24.26,24.26,0,0,1-14-3.55A25.06,25.06,0,0,1,.4,29.84C.22,28.89.13,27.92,0,27ZM25.45,11H17a7.28,7.28,0,0,0-1.48.13A5.59,5.59,0,0,0,11,16.86q0,8.61,0,17.2a7.18,7.18,0,0,0,.12,1.39A5.6,5.6,0,0,0,16.85,40h17.2a6.87,6.87,0,0,0,1.43-.14A5.58,5.58,0,0,0,40,34.09q0-8.63,0-17.25a7,7,0,0,0-.22-1.77A5.6,5.6,0,0,0,34.1,11Z"/><path class="cls-1" d="M32.86,22.51h4.25V34A2.79,2.79,0,0,1,34,37.11H16.91a2.79,2.79,0,0,1-3.1-3.1V22.51h4.25c-1.17,3.86-.34,7.11,3,9.5a7.63,7.63,0,0,0,8.82,0C33.19,29.62,34,26.38,32.86,22.51Z"/><path class="cls-1" d="M30.55,25.47a5.09,5.09,0,1,1-5.13-5.09A5.11,5.11,0,0,1,30.55,25.47Z"/><path class="cls-1" d="M31.72,19.2V14.37h4.85V19.2Z"/></g></g></svg>