<svg xmlns="http://www.w3.org/2000/svg" viewBox="0 0 51.22 51.22"><defs><style>.cls-1{fill:#6bcce2;}</style></defs><title>LinkedIn</title><g id="Layer_2" data-name="Layer 2"><g id="Layer_1-2" data-name="Layer 1"><path class="cls-1" d="M49.83,17.52C46.15,7.45,39,1.63,28.31.18A6.46,6.46,0,0,1,27.55,0H23.68a47.16,47.16,0,0,0-5.31,1.1Q2.73,6.25.19,22.57c0,.22-.13.44-.19.65v4.55c.29,1.44.5,2.9.87,4.31A25.54,25.54,0,0,0,21.9,51l1.78.26h3.87c1.84-.38,3.72-.63,5.52-1.15A25.51,25.51,0,0,0,51,28.42a8.41,8.41,0,0,1,.19-.87V23.9A46.71,46.71,0,0,0,49.83,17.52ZM19.15,38h-6.3V15.65h6.3Zm-3-23.68a3,3,0,0,1-3-3.08,3,3,0,0,1,3.07-3,3,3,0,0,1-.09,6.06ZM41.65,37.94h-6.4c0-.38,0-.78-.06-1.18,0-4.06,0-8.12,0-12.18,0-2.35-.63-3.15-2.43-3.18a3.56,3.56,0,0,0-3.89,3.4c0,3.94,0,7.89,0,11.83V38H22.42V15.66h6.4c0,.61.05,1.17.08,1.87l.9-.47a10.19,10.19,0,0,1,5.65-1.46c3.17.15,5.5,2.56,5.95,6.13a36.15,36.15,0,0,1,.24,4.42C41.67,30.05,41.65,34,41.65,37.94Z"/></g></g></svg>